HIERARCHY
ROOT Hips
{
	OFFSET 0.000000 0.000000 0.000000
	CHANNELS 6 Xposition Yposition Zposition Xrotation Yrotation Zrotation
	JOINT LeftUpLeg_virtual
	{
		OFFSET 0.000000 0.000000 0.000000
		CHANNELS 3 Xrotation Yrotation Zrotation
		JOINT LeftUpLeg
		{
			OFFSET 10.205400 -3.823500 0.155100
			CHANNELS 3 Xrotation Yrotation Zrotation
			JOINT LeftLeg
			{
				OFFSET 0.708757 -12.982077 0.567790
				CHANNELS 3 Xrotation Yrotation Zrotation
				JOINT LeftFoot
				{
					OFFSET -0.708756 -10.717838 -2.184338
					CHANNELS 3 Xrotation Yrotation Zrotation
					JOINT LeftToeBase
					{
						OFFSET 0.108149 -7.191104 7.560241
						CHANNELS 3 Xrotation Yrotation Zrotation
						JOINT LeftToe_End
						{
							OFFSET 0.070230 0.081724 4.490308
							CHANNELS 3 Xrotation Yrotation Zrotation
							End Site
							{
								OFFSET 0 0 0
							}
						}
					}
				}
			}
		}
	}
	JOINT RightUpLeg_virtual
	{
		OFFSET 0.000000 0.000000 0.000000
		CHANNELS 3 Xrotation Yrotation Zrotation
		JOINT RightUpLeg
		{
			OFFSET -10.205400 -3.823500 0.005500
			CHANNELS 3 Xrotation Yrotation Zrotation
			JOINT RightLeg
			{
				OFFSET -0.708756 -12.982134 0.610632
				CHANNELS 3 Xrotation Yrotation Zrotation
				JOINT RightFoot
				{
					OFFSET 0.708754 -10.717769 -1.945823
					CHANNELS 3 Xrotation Yrotation Zrotation
					JOINT RightToeBase
					{
						OFFSET -0.108140 -7.191069 7.372968
						CHANNELS 3 Xrotation Yrotation Zrotation
						JOINT RightToe_End
						{
							OFFSET -0.070227 0.081735 4.479403
							CHANNELS 3 Xrotation Yrotation Zrotation
							End Site
							{
								OFFSET 0 0 0
							}
						}
					}
				}
			}
		}
	}
	JOINT Spine_virtual
	{
		OFFSET 0.000000 0.000000 0.000000
		CHANNELS 3 Xrotation Yrotation Zrotation
		JOINT Spine
		{
			OFFSET 0.000000 6.876099 0.125700
			CHANNELS 3 Xrotation Yrotation Zrotation
			JOINT Spine1
			{
				OFFSET 0.000000 5.730043 0.104720
				CHANNELS 3 Xrotation Yrotation Zrotation
				JOINT Spine1_split
				{
					OFFSET 0.000000 5.730043 0.104720
					CHANNELS 3 Xrotation Yrotation Zrotation
					JOINT Spine2
					{
						OFFSET 0.000000 5.730043 0.104720
						CHANNELS 3 Xrotation Yrotation Zrotation
						JOINT Neck_virtual
						{
							OFFSET 0.000000 0.000000 0.000000
							CHANNELS 3 Xrotation Yrotation Zrotation
							JOINT Neck
							{
								OFFSET 0.000000 10.314075 0.188496
								CHANNELS 3 Xrotation Yrotation Zrotation
								JOINT Head
								{
									OFFSET 0.000000 7.643700 -2.377400
									CHANNELS 3 Xrotation Yrotation Zrotation
									JOINT HeadTop_End
									{
										OFFSET 0.000000 43.788605 -13.619600
										CHANNELS 3 Xrotation Yrotation Zrotation
										End Site
										{
											OFFSET 0 0 0
										}
									}
								}
							}
						}
						JOINT LeftShoulder_virtual
						{
							OFFSET 0.000000 0.000000 0.000000
							CHANNELS 3 Xrotation Yrotation Zrotation
							JOINT LeftShoulder
							{
								OFFSET 2.196100 4.412489 0.087492
								CHANNELS 3 Xrotation Yrotation Zrotation
								JOINT LeftShoulder_split
								{
									OFFSET 2.196100 4.412489 0.087492
									CHANNELS 3 Xrotation Yrotation Zrotation
									JOINT LeftArm
									{
										OFFSET 8.771219 -2.981674 -0.026999
										CHANNELS 3 Xrotation Yrotation Zrotation
										JOINT LeftForeArm
										{
											OFFSET 8.512804 0.000000 -0.000000
											CHANNELS 3 Xrotation Yrotation Zrotation
											JOINT LeftHand
											{
												OFFSET 18.484802 0.000000 -0.000000
												CHANNELS 3 Xrotation Yrotation Zrotation
												End Site
												{
													OFFSET 0 0 0
												}
											}
										}
									}
								}
							}
						}
						JOINT RightShoulder_virtual
						{
							OFFSET 0.000000 0.000000 0.000000
							CHANNELS 3 Xrotation Yrotation Zrotation
							JOINT RightShoulder
							{
								OFFSET -2.196100 4.412496 0.070690
								CHANNELS 3 Xrotation Yrotation Zrotation
								JOINT RightShoulder_split
								{
									OFFSET -2.196100 4.412496 0.070690
									CHANNELS 3 Xrotation Yrotation Zrotation
									JOINT RightArm
									{
										OFFSET -8.771282 -2.981682 -0.094208
										CHANNELS 3 Xrotation Yrotation Zrotation
										JOINT RightForeArm
										{
											OFFSET -8.494598 0.000000 0.000000
											CHANNELS 3 Xrotation Yrotation Zrotation
											JOINT RightHand
											{
												OFFSET -18.483803 0.000000 0.000001
												CHANNELS 3 Xrotation Yrotation Zrotation
												End Site
												{
													OFFSET 0 0 0
												}
											}
										}
									}
								}
							}
						}
					}
				}
			}
		}
	}
}
MOTION
Frames: 11
Frame Time: 0.03333333
0.025982 31.221584 -4.114250 0.000000 0.000000 0.000000 -1.747054 -35.841356 0.313169 -30.357018 2.005815 12.336149 33.817657 -5.422971 3.327347 -1.554890 4.831702 -20.971425 1.565307 -1.033969 2.863753 0.000000 0.000000 0.000000 -1.041491 -34.475878 0.605520 6.819486 -18.380056 -14.216461 24.615575 27.085848 -1.347150 -39.804256 -17.074508 10.299906 5.368504 3.499728 -13.642157 0.000000 0.000000 0.000000 -1.762255 -28.947226 -0.945900 3.826801 -2.602857 0.985980 9.142895 -0.547962 0.180814 0.113899 -0.191410 0.027328 0.000000 0.000000 0.000000 10.095782 2.113080 -0.205993 0.854973 -5.011394 5.763570 2.632802 -31.510606 22.183923 0.000000 0.000000 0.000000 8.427347 0.264986 -0.700530 3.362741 -5.844588 -8.322024 1.722428 -1.799694 -0.912040 -8.369682 12.250521 -56.108945 -6.855457 -50.093939 -7.945253 0.000000 0.000000 0.000000 9.970602 0.734112 0.188005 2.613567 5.235179 6.563535 -4.659755 1.706747 3.375947 -3.493447 -16.420444 60.665180 -24.323876 43.727861 17.259926 0.000000 0.000000 0.000000 
-0.080103 31.329069 -4.142296 0.000000 0.000000 0.000000 -1.713241 -39.828302 0.323504 -27.954938 3.877095 13.548559 33.510042 -5.534648 3.390829 -3.099141 7.242997 -21.765757 1.278799 -1.333801 2.512675 0.000000 0.000000 0.000000 -0.946977 -38.405846 0.662251 4.135093 -17.102331 -14.866347 25.549374 26.766401 -1.844795 -37.888378 -16.336247 11.500699 5.584594 3.684356 -15.160751 0.000000 0.000000 0.000000 -1.752421 -32.911553 -0.951858 3.787072 -3.028731 1.122359 9.160368 -1.370174 0.312981 0.105411 -0.189991 0.014867 0.000000 0.000000 0.000000 10.155507 1.304667 -0.089397 0.694400 -4.706179 5.291046 3.175204 -29.850543 23.620679 0.000000 0.000000 0.000000 8.558034 -0.563481 -0.606500 3.337231 -6.470547 -8.487809 1.769209 -1.755189 -0.984905 -7.378735 12.946907 -56.095186 -6.524183 -51.092878 -7.877785 0.000000 0.000000 0.000000 10.042221 -0.088486 0.295827 2.737861 4.189008 6.687113 -4.320452 1.611684 3.441419 -3.182781 -16.571885 60.536021 -25.276864 44.719923 18.179580 0.000000 0.000000 0.000000 
-0.188258 31.428278 -4.196489 0.000000 0.000000 0.000000 -1.629273 -43.616611 0.432243 -25.566892 5.895139 14.594919 33.028199 -5.705610 3.354900 -4.470213 9.421729 -22.544655 0.910745 -1.632367 2.123943 0.000000 0.000000 0.000000 -0.810355 -42.175639 0.797504 1.585031 -15.682408 -15.416200 26.436611 26.233148 -2.315882 -35.958654 -15.586521 12.823299 5.669667 3.865197 -16.601605 0.000000 0.000000 0.000000 -1.693009 -36.753443 -0.872890 3.719515 -3.394007 1.214169 9.187255 -2.116013 0.405055 0.095141 -0.189803 0.004487 0.000000 0.000000 0.000000 10.230064 0.567621 -0.012389 0.571893 -4.386057 4.804309 3.503117 -28.108255 24.913791 0.000000 0.000000 0.000000 8.707106 -1.316297 -0.554083 3.336737 -7.032518 -8.605341 1.760549 -1.808975 -0.997769 -6.541951 13.603211 -55.839815 -6.446069 -51.961234 -7.978577 0.000000 0.000000 0.000000 10.121459 -0.836244 0.374899 2.878767 3.124431 6.922063 -3.943710 1.451245 3.434238 -2.838527 -16.810764 60.257042 -25.896795 45.530813 18.845494 0.000000 0.000000 0.000000 
-0.295467 31.512920 -4.263754 0.000000 0.000000 0.000000 -1.476177 -47.219116 0.627973 -23.202641 8.046671 15.507731 32.421648 -5.878101 3.205755 -5.711753 11.373365 -23.230375 0.555299 -1.918983 1.636543 0.000000 0.000000 0.000000 -0.615809 -45.760188 1.015902 -0.836212 -14.143653 -15.875677 27.286724 25.533769 -2.743346 -34.014875 -14.811892 14.246404 5.615091 4.037925 -17.895355 0.000000 0.000000 0.000000 -1.573100 -40.436660 -0.713181 3.613033 -3.696270 1.246866 9.209510 -2.766769 0.454445 0.086910 -0.184896 -0.007360 0.000000 0.000000 0.000000 10.315309 -0.076099 0.018559 0.559926 -4.076531 4.344401 3.723150 -26.422389 26.121095 0.000000 0.000000 0.000000 8.854306 -1.970819 -0.541283 3.359475 -7.521920 -8.635354 1.755537 -1.987060 -0.975493 -5.953314 14.235805 -55.298144 -6.643287 -52.662370 -8.254799 0.000000 0.000000 0.000000 10.193305 -1.488475 0.420297 3.043502 2.081311 7.242425 -3.573349 1.244017 3.358173 -2.486723 -17.151942 59.840305 -26.137858 46.241371 19.201361 0.000000 0.000000 0.000000 
-0.397862 31.577921 -4.345194 0.000000 0.000000 0.000000 -1.268392 -50.672292 0.877225 -20.873603 10.326357 16.312642 31.722882 -5.978015 2.934602 -6.921356 13.118154 -23.727966 0.185964 -2.188950 1.021364 0.000000 0.000000 0.000000 -0.380272 -49.159785 1.292263 -3.121458 -12.520386 -16.229388 28.072559 24.714413 -3.099368 -32.095971 -13.987497 15.693007 5.535502 4.189338 -19.003721 0.000000 0.000000 0.000000 -1.437935 -43.951670 -0.506536 3.464049 -3.940791 1.220495 9.215123 -3.312917 0.466559 0.090521 -0.182226 -0.011838 0.000000 0.000000 0.000000 10.401207 -0.613232 0.003462 0.699464 -3.782867 3.936239 3.900178 -24.864293 27.265902 0.000000 0.000000 0.000000 8.982320 -2.516197 -0.561922 3.401338 -7.945988 -8.553269 1.773617 -2.297014 -0.946809 -5.616955 14.842976 -54.490928 -7.057047 -53.133404 -8.643245 0.000000 0.000000 0.000000 10.249381 -2.033322 0.430828 3.236681 1.103936 7.599776 -3.208754 0.998878 3.244416 -2.176247 -17.563603 59.336688 -25.968251 46.847578 19.198699 0.000000 0.000000 0.000000 
-0.489835 31.620243 -4.428869 0.000000 0.000000 0.000000 -1.027564 -53.963467 1.152431 -18.589687 12.689466 17.016667 30.973528 -5.985166 2.579602 -8.137897 14.658826 -24.018451 -0.264366 -2.440517 0.299537 0.000000 0.000000 0.000000 -0.107719 -52.369465 1.596774 -5.248719 -10.878958 -16.477580 28.740671 23.813641 -3.364384 -30.265408 -13.108655 17.088063 5.508583 4.307968 -19.931421 0.000000 0.000000 0.000000 -1.294678 -47.265496 -0.282159 3.278494 -4.135146 1.144151 9.200870 -3.751123 0.453063 0.092974 -0.170817 -0.016219 0.000000 0.000000 0.000000 10.475249 -1.039518 -0.044609 0.988990 -3.500363 3.583159 4.029376 -23.453247 28.312983 0.000000 0.000000 0.000000 9.081127 -2.953235 -0.597467 3.455634 -8.313150 -8.359032 1.835366 -2.666536 -0.953759 -5.516107 15.414292 -53.506510 -7.569350 -53.336360 -9.035019 0.000000 0.000000 0.000000 10.275250 -2.472855 0.419734 3.455333 0.227717 7.957422 -2.857208 0.800386 3.078229 -1.936412 -18.051867 58.846547 -25.349025 47.249958 18.772558 0.000000 0.000000 0.000000 
-0.575988 31.648987 -4.505831 0.000000 0.000000 0.000000 -0.786362 -57.030642 1.413115 -16.384855 15.061004 17.622113 30.230858 -5.925686 2.167112 -9.289733 15.949322 -24.206803 -0.750918 -2.674870 -0.513504 0.000000 0.000000 0.000000 0.153414 -55.398749 1.884463 -7.174612 -9.293796 -16.619153 29.257788 22.859205 -3.548761 -28.558792 -12.206766 18.398810 5.493296 4.404357 -20.716030 0.000000 0.000000 0.000000 -1.162134 -50.320995 -0.066706 3.075578 -4.291295 1.032280 9.166096 -4.090035 0.435014 0.094535 -0.154289 -0.015435 0.000000 0.000000 0.000000 10.518695 -1.366344 -0.106851 1.392780 -3.216758 3.261399 4.053226 -22.158626 29.215253 0.000000 0.000000 0.000000 9.152924 -3.296556 -0.626836 3.517034 -8.646449 -8.079758 2.032279 -2.990341 -1.003007 -5.617788 15.912476 -52.454306 -8.060107 -53.297838 -9.321755 0.000000 0.000000 0.000000 10.267525 -2.815163 0.405790 3.683428 -0.515325 8.264603 -2.479394 0.711978 2.928764 -1.775494 -18.597184 58.461836 -24.321057 47.363786 17.934432 0.000000 0.000000 0.000000 
-0.653996 31.674427 -4.568068 0.000000 0.000000 0.000000 -0.614858 -59.848249 1.611009 -14.322510 17.342356 18.124667 29.538813 -5.833705 1.712986 -10.286699 16.961078 -24.406370 -1.221392 -2.892160 -1.363375 0.000000 0.000000 0.000000 0.382369 -58.211974 2.138098 -8.865140 -7.825419 -16.669777 29.628206 21.891422 -3.659367 -26.949128 -11.295069 19.647654 5.411361 4.489007 -21.398773 0.000000 0.000000 0.000000 -1.064621 -53.091364 0.106461 2.880320 -4.422765 0.905211 9.120781 -4.346446 0.432227 0.097143 -0.137322 -0.012588 0.000000 0.000000 0.000000 10.530008 -1.614428 -0.158628 1.855625 -2.922003 2.948015 3.942077 -20.986702 29.941934 0.000000 0.000000 0.000000 9.204658 -3.566312 -0.629085 3.582385 -8.959539 -7.764378 2.283772 -3.259456 -1.114843 -5.888033 16.292564 -51.424696 -8.442367 -53.058644 -9.426859 0.000000 0.000000 0.000000 10.230010 -3.080451 0.404418 3.907190 -1.108242 8.485544 -2.079649 0.635827 2.778986 -1.670956 -19.213223 58.279088 -22.989928 47.149411 16.765282 0.000000 0.000000 0.000000 
-0.720895 31.705881 -4.606781 0.000000 0.000000 0.000000 -0.546054 -62.379708 1.717123 -12.443504 19.432957 18.486532 28.921702 -5.700220 1.242844 -11.100465 17.727879 -24.664662 -1.558066 -3.093291 -2.220231 0.000000 0.000000 0.000000 0.551099 -60.775146 2.340252 -10.306491 -6.505706 -16.650871 29.848173 20.968015 -3.714878 -25.438664 -10.382738 20.880749 5.222491 4.569140 -22.014695 0.000000 0.000000 0.000000 -0.985457 -55.557770 0.239615 2.714912 -4.538658 0.778215 9.065984 -4.545402 0.456011 0.096999 -0.121034 -0.010542 0.000000 0.000000 0.000000 10.512848 -1.810028 -0.180808 2.310032 -2.612918 2.628108 3.633073 -19.887146 30.448597 0.000000 0.000000 0.000000 9.248208 -3.780232 -0.589806 3.646563 -9.244045 -7.467293 2.538518 -3.548387 -1.248663 -6.338982 16.553764 -50.476327 -8.684710 -52.708741 -9.329909 0.000000 0.000000 0.000000 10.178503 -3.303901 0.418648 4.111300 -1.572837 8.599288 -1.647107 0.599252 2.610122 -1.601808 -19.937208 58.313389 -21.540098 46.677677 15.433979 0.000000 0.000000 0.000000 
-0.778337 31.749290 -4.623020 0.000000 0.000000 0.000000 -0.575292 -64.570163 1.740944 -10.728252 21.280610 18.660304 28.342978 -5.485857 0.776637 -11.817489 18.326876 -24.935079 -1.719657 -3.281843 -3.039400 0.000000 0.000000 0.000000 0.652894 -63.051812 2.490878 -11.481993 -5.346118 -16.575708 29.917519 20.124859 -3.745567 -24.096638 -9.506558 22.050506 4.993317 4.632000 -22.580501 0.000000 0.000000 0.000000 -0.958454 -57.734305 0.317490 2.596366 -4.647175 0.665191 9.003694 -4.704047 0.504983 0.106459 -0.102863 -0.004359 0.000000 0.000000 0.000000 10.473135 -1.969133 -0.168971 2.715660 -2.272230 2.296633 3.130110 -18.820897 30.718448 0.000000 0.000000 0.000000 9.280433 -3.951871 -0.517445 3.700885 -9.500306 -7.251386 2.741817 -3.859911 -1.396091 -6.985442 16.693787 -49.621478 -8.809612 -52.376145 -9.069287 0.000000 0.000000 0.000000 10.115337 -3.496955 0.447160 4.282906 -1.955432 8.612625 -1.214175 0.620687 2.453169 -1.530046 -20.748827 58.566618 -20.145844 46.077788 14.114407 0.000000 0.000000 0.000000 
-0.826191 31.799387 -4.621883 0.000000 0.000000 0.000000 -0.717992 -66.392369 1.681950 -9.163760 22.838119 18.626780 27.777264 -5.178447 0.344855 -12.496743 18.821075 -25.196021 -1.803979 -3.454635 -3.778821 0.000000 0.000000 0.000000 0.692179 -64.997719 2.602449 -12.379669 -4.339651 -16.453671 29.867297 19.375729 -3.781603 -23.013527 -8.715391 23.004217 4.852123 4.656957 -23.102917 0.000000 0.000000 0.000000 -0.976399 -59.610039 0.352750 2.532749 -4.750604 0.572576 8.929675 -4.837245 0.561593 0.110507 -0.087392 -0.000729 0.000000 0.000000 0.000000 10.416569 -2.101128 -0.133629 3.049736 -1.890537 1.956614 2.483604 -17.742216 30.745314 0.000000 0.000000 0.000000 9.294381 -4.088284 -0.429327 3.738452 -9.717589 -7.166818 2.949810 -4.190240 -1.535270 -7.793376 16.759177 -48.848488 -8.832144 -52.200745 -8.690245 0.000000 0.000000 0.000000 10.035044 -3.667530 0.476155 4.416755 -2.301794 8.547423 -0.813750 0.718096 2.344414 -1.442115 -21.624802 58.963760 -18.935928 45.437499 12.941325 0.000000 0.000000 0.000000 
